<svg xmlns="http://www.w3.org/2000/svg" viewBox="0 0 15 13">
  <path fill="#4186D3" d="M 13.75 11.76C 13.75 11.76 13.75 4.02 13.75 1.78 13.75 1.4 13.75 1.18 13.75 1.18 13.75 1.18 13.53 1.18 13.14 1.18 10.64 1.18 1.31 1.18 1.31 1.18 1.5 0.51 2.14-0 2.92-0 2.92-0 13.33-0 13.33-0 14.25-0 15 0.71 15 1.58 15 1.58 15 10.24 15 10.24 15 10.97 14.47 11.58 13.75 11.76ZM 11.11 2.36C 11.87 2.36 12.5 2.95 12.5 3.68 12.5 3.68 12.5 11.69 12.5 11.69 12.5 12.41 11.87 13 11.11 13 11.11 13 1.39 13 1.39 13 0.62 13-0 12.41-0 11.69-0 11.69-0 3.68-0 3.68-0 2.95 0.62 2.36 1.39 2.36 1.39 2.36 11.11 2.36 11.11 2.36ZM 6.25 4.13C 5.25 4.13 4.42 4.9 4.42 5.83 4.42 6.75 5.25 7.52 6.25 7.52 7.25 7.52 8.08 6.75 8.08 5.83 8.08 4.9 7.25 4.13 6.25 4.13ZM 2.5 11.22C 2.5 11.22 10 11.22 10 11.22 10 11.22 10 10.61 10 10.61 10 9.45 7.5 8.91 6.25 8.91 5 8.91 2.5 9.53 2.5 10.61 2.5 10.61 2.5 11.22 2.5 11.22Z"></path>
</svg>